<svg style="position: absolute; width: 0; height: 0; overflow: hidden;" version="1.1" xmlns="http://www.w3.org/2000/svg" xmlns:xlink="http://www.w3.org/1999/xlink">
<defs>
<symbol id="dummy" viewBox="0 0 32 32">
<title>dummy</title>
<path class="path1" d="M16 0c-8.837 0-16 7.163-16 16s7.163 16 16 16c8.837 0 16-7.163 16-16-0.011-8.832-7.168-15.989-15.999-16zM16 31.683c-8.662 0-15.683-7.022-15.683-15.683s7.022-15.683 15.683-15.683c8.662 0 15.683 7.022 15.683 15.683-0.011 8.657-7.026 15.672-15.682 15.683zM25.128 6.653l-9.128 9.122-9.128-9.122-0.225 0.225 9.128 9.122-9.122 9.128 0.225 0.225 9.122-9.128 9.128 9.122 0.225-0.225-9.128-9.122 9.122-9.128z"></path>
</symbol>
</defs>
</svg>